<mxfile host="app.diagrams.net" agent="Mozilla/5.0 (Windows NT 10.0; Win64; x64) AppleWebKit/537.36 (KHTML, like Gecko) Chrome/136.0.0.0 Safari/537.36 Edg/136.0.0.0" version="27.1.1">
  <diagram name="Страница — 1" id="xv8abH6Gn7maXqwiPjnm">
    <mxGraphModel dx="797" dy="391" grid="1" gridSize="10" guides="1" tooltips="1" connect="1" arrows="1" fold="1" page="1" pageScale="1" pageWidth="827" pageHeight="1169" math="0" shadow="0">
      <root>
        <mxCell id="0" />
        <mxCell id="1" parent="0" />
        <mxCell id="B3g7HZk14HjYSBp_AV-u-1" value="Пользователь" style="html=1;whiteSpace=wrap;" vertex="1" parent="1">
          <mxGeometry x="70" y="60" width="110" height="50" as="geometry" />
        </mxCell>
        <mxCell id="B3g7HZk14HjYSBp_AV-u-2" value="Система" style="html=1;whiteSpace=wrap;" vertex="1" parent="1">
          <mxGeometry x="320" y="60" width="110" height="50" as="geometry" />
        </mxCell>
        <mxCell id="B3g7HZk14HjYSBp_AV-u-3" value="Администратор" style="html=1;whiteSpace=wrap;" vertex="1" parent="1">
          <mxGeometry x="630" y="60" width="110" height="50" as="geometry" />
        </mxCell>
        <mxCell id="B3g7HZk14HjYSBp_AV-u-4" value="" style="endArrow=none;dashed=1;html=1;rounded=0;entryX=0.445;entryY=0.98;entryDx=0;entryDy=0;entryPerimeter=0;" edge="1" parent="1" source="B3g7HZk14HjYSBp_AV-u-9" target="B3g7HZk14HjYSBp_AV-u-1">
          <mxGeometry width="50" height="50" relative="1" as="geometry">
            <mxPoint x="120" y="450" as="sourcePoint" />
            <mxPoint x="150" y="170" as="targetPoint" />
          </mxGeometry>
        </mxCell>
        <mxCell id="B3g7HZk14HjYSBp_AV-u-5" value="" style="endArrow=none;dashed=1;html=1;rounded=0;entryX=0.445;entryY=0.98;entryDx=0;entryDy=0;entryPerimeter=0;" edge="1" parent="1" source="B3g7HZk14HjYSBp_AV-u-11">
          <mxGeometry width="50" height="50" relative="1" as="geometry">
            <mxPoint x="375.5" y="451" as="sourcePoint" />
            <mxPoint x="374.5" y="110" as="targetPoint" />
          </mxGeometry>
        </mxCell>
        <mxCell id="B3g7HZk14HjYSBp_AV-u-6" value="" style="endArrow=none;dashed=1;html=1;rounded=0;entryX=0.445;entryY=1.04;entryDx=0;entryDy=0;entryPerimeter=0;" edge="1" parent="1" target="B3g7HZk14HjYSBp_AV-u-3">
          <mxGeometry width="50" height="50" relative="1" as="geometry">
            <mxPoint x="680" y="150" as="sourcePoint" />
            <mxPoint x="634.5" y="100" as="targetPoint" />
          </mxGeometry>
        </mxCell>
        <mxCell id="B3g7HZk14HjYSBp_AV-u-8" value="" style="endArrow=none;dashed=1;html=1;rounded=0;entryX=0.445;entryY=0.98;entryDx=0;entryDy=0;entryPerimeter=0;" edge="1" parent="1" target="B3g7HZk14HjYSBp_AV-u-9">
          <mxGeometry width="50" height="50" relative="1" as="geometry">
            <mxPoint x="119" y="560" as="sourcePoint" />
            <mxPoint x="119" y="109" as="targetPoint" />
          </mxGeometry>
        </mxCell>
        <mxCell id="B3g7HZk14HjYSBp_AV-u-9" value="" style="html=1;points=[[0,0,0,0,5],[0,1,0,0,-5],[1,0,0,0,5],[1,1,0,0,-5]];perimeter=orthogonalPerimeter;outlineConnect=0;targetShapes=umlLifeline;portConstraint=eastwest;newEdgeStyle={&quot;curved&quot;:0,&quot;rounded&quot;:0};" vertex="1" parent="1">
          <mxGeometry x="115" y="150" width="10" height="370" as="geometry" />
        </mxCell>
        <mxCell id="B3g7HZk14HjYSBp_AV-u-10" value="" style="endArrow=open;endFill=1;endSize=12;html=1;rounded=0;" edge="1" parent="1">
          <mxGeometry width="160" relative="1" as="geometry">
            <mxPoint x="120" y="150" as="sourcePoint" />
            <mxPoint x="370" y="150" as="targetPoint" />
          </mxGeometry>
        </mxCell>
        <mxCell id="B3g7HZk14HjYSBp_AV-u-12" value="" style="endArrow=none;dashed=1;html=1;rounded=0;entryX=0.445;entryY=0.98;entryDx=0;entryDy=0;entryPerimeter=0;" edge="1" parent="1" source="B3g7HZk14HjYSBp_AV-u-31" target="B3g7HZk14HjYSBp_AV-u-11">
          <mxGeometry width="50" height="50" relative="1" as="geometry">
            <mxPoint x="375.5" y="451" as="sourcePoint" />
            <mxPoint x="374.5" y="110" as="targetPoint" />
          </mxGeometry>
        </mxCell>
        <mxCell id="B3g7HZk14HjYSBp_AV-u-11" value="" style="html=1;points=[[0,0,0,0,5],[0,1,0,0,-5],[1,0,0,0,5],[1,1,0,0,-5]];perimeter=orthogonalPerimeter;outlineConnect=0;targetShapes=umlLifeline;portConstraint=eastwest;newEdgeStyle={&quot;curved&quot;:0,&quot;rounded&quot;:0};" vertex="1" parent="1">
          <mxGeometry x="370" y="150" width="10" height="20" as="geometry" />
        </mxCell>
        <mxCell id="B3g7HZk14HjYSBp_AV-u-13" value="Записать пользователя в базу данных" style="text;align=center;fontStyle=1;verticalAlign=middle;spacingLeft=3;spacingRight=3;strokeColor=none;rotatable=0;points=[[0,0.5],[1,0.5]];portConstraint=eastwest;html=1;" vertex="1" parent="1">
          <mxGeometry x="200" y="130" width="80" height="26" as="geometry" />
        </mxCell>
        <mxCell id="B3g7HZk14HjYSBp_AV-u-14" value="" style="endArrow=open;endFill=1;endSize=12;html=1;rounded=0;" edge="1" parent="1">
          <mxGeometry width="160" relative="1" as="geometry">
            <mxPoint x="380" y="170" as="sourcePoint" />
            <mxPoint x="670" y="170" as="targetPoint" />
          </mxGeometry>
        </mxCell>
        <mxCell id="B3g7HZk14HjYSBp_AV-u-16" value="" style="endArrow=none;dashed=1;html=1;rounded=0;" edge="1" parent="1" source="B3g7HZk14HjYSBp_AV-u-35">
          <mxGeometry width="50" height="50" relative="1" as="geometry">
            <mxPoint x="680" y="440" as="sourcePoint" />
            <mxPoint x="680" y="230" as="targetPoint" />
            <Array as="points" />
          </mxGeometry>
        </mxCell>
        <mxCell id="B3g7HZk14HjYSBp_AV-u-17" value="Проверка на авторизованного пользователя" style="text;align=center;fontStyle=1;verticalAlign=middle;spacingLeft=3;spacingRight=3;strokeColor=none;rotatable=0;points=[[0,0.5],[1,0.5]];portConstraint=eastwest;html=1;" vertex="1" parent="1">
          <mxGeometry x="470" y="150" width="80" height="26" as="geometry" />
        </mxCell>
        <mxCell id="B3g7HZk14HjYSBp_AV-u-21" value="" style="html=1;points=[[0,0,0,0,5],[0,1,0,0,-5],[1,0,0,0,5],[1,1,0,0,-5]];perimeter=orthogonalPerimeter;outlineConnect=0;targetShapes=umlLifeline;portConstraint=eastwest;newEdgeStyle={&quot;curved&quot;:0,&quot;rounded&quot;:0};" vertex="1" parent="1">
          <mxGeometry x="675" y="150" width="10" height="80" as="geometry" />
        </mxCell>
        <mxCell id="B3g7HZk14HjYSBp_AV-u-23" value="Пользователь авторизован" style="text;align=center;fontStyle=1;verticalAlign=middle;spacingLeft=3;spacingRight=3;strokeColor=none;rotatable=0;points=[[0,0.5],[1,0.5]];portConstraint=eastwest;html=1;" vertex="1" parent="1">
          <mxGeometry x="490" y="190" width="80" height="26" as="geometry" />
        </mxCell>
        <mxCell id="B3g7HZk14HjYSBp_AV-u-24" value="" style="html=1;verticalAlign=bottom;endArrow=open;dashed=1;endSize=8;curved=0;rounded=0;" edge="1" parent="1" source="B3g7HZk14HjYSBp_AV-u-21">
          <mxGeometry relative="1" as="geometry">
            <mxPoint x="460" y="220" as="sourcePoint" />
            <mxPoint x="380" y="220" as="targetPoint" />
          </mxGeometry>
        </mxCell>
        <mxCell id="B3g7HZk14HjYSBp_AV-u-25" value="" style="html=1;verticalAlign=bottom;endArrow=open;dashed=1;endSize=8;curved=0;rounded=0;" edge="1" parent="1">
          <mxGeometry relative="1" as="geometry">
            <mxPoint x="370" y="250" as="sourcePoint" />
            <mxPoint x="125" y="250" as="targetPoint" />
          </mxGeometry>
        </mxCell>
        <mxCell id="B3g7HZk14HjYSBp_AV-u-26" value="Авторизация" style="text;align=center;fontStyle=1;verticalAlign=middle;spacingLeft=3;spacingRight=3;strokeColor=none;rotatable=0;points=[[0,0.5],[1,0.5]];portConstraint=eastwest;html=1;" vertex="1" parent="1">
          <mxGeometry x="210" y="224" width="80" height="26" as="geometry" />
        </mxCell>
        <mxCell id="B3g7HZk14HjYSBp_AV-u-28" value="" style="html=1;points=[[0,0,0,0,5],[0,1,0,0,-5],[1,0,0,0,5],[1,1,0,0,-5]];perimeter=orthogonalPerimeter;outlineConnect=0;targetShapes=umlLifeline;portConstraint=eastwest;newEdgeStyle={&quot;curved&quot;:0,&quot;rounded&quot;:0};" vertex="1" parent="1">
          <mxGeometry x="370" y="216" width="10" height="34" as="geometry" />
        </mxCell>
        <mxCell id="B3g7HZk14HjYSBp_AV-u-29" value="" style="endArrow=open;endFill=1;endSize=12;html=1;rounded=0;" edge="1" parent="1">
          <mxGeometry width="160" relative="1" as="geometry">
            <mxPoint x="125" y="290" as="sourcePoint" />
            <mxPoint x="375" y="290" as="targetPoint" />
          </mxGeometry>
        </mxCell>
        <mxCell id="B3g7HZk14HjYSBp_AV-u-30" value="Ввести данные пользователя" style="text;align=center;fontStyle=1;verticalAlign=middle;spacingLeft=3;spacingRight=3;strokeColor=none;rotatable=0;points=[[0,0.5],[1,0.5]];portConstraint=eastwest;html=1;" vertex="1" parent="1">
          <mxGeometry x="210" y="270" width="80" height="26" as="geometry" />
        </mxCell>
        <mxCell id="B3g7HZk14HjYSBp_AV-u-32" value="" style="endArrow=none;dashed=1;html=1;rounded=0;entryX=0.445;entryY=0.98;entryDx=0;entryDy=0;entryPerimeter=0;" edge="1" parent="1" source="B3g7HZk14HjYSBp_AV-u-42" target="B3g7HZk14HjYSBp_AV-u-31">
          <mxGeometry width="50" height="50" relative="1" as="geometry">
            <mxPoint x="375.5" y="451" as="sourcePoint" />
            <mxPoint x="374" y="170" as="targetPoint" />
          </mxGeometry>
        </mxCell>
        <mxCell id="B3g7HZk14HjYSBp_AV-u-31" value="" style="html=1;points=[[0,0,0,0,5],[0,1,0,0,-5],[1,0,0,0,5],[1,1,0,0,-5]];perimeter=orthogonalPerimeter;outlineConnect=0;targetShapes=umlLifeline;portConstraint=eastwest;newEdgeStyle={&quot;curved&quot;:0,&quot;rounded&quot;:0};" vertex="1" parent="1">
          <mxGeometry x="370" y="290" width="10" height="20" as="geometry" />
        </mxCell>
        <mxCell id="B3g7HZk14HjYSBp_AV-u-33" value="" style="endArrow=open;endFill=1;endSize=12;html=1;rounded=0;" edge="1" parent="1">
          <mxGeometry width="160" relative="1" as="geometry">
            <mxPoint x="380" y="310" as="sourcePoint" />
            <mxPoint x="670" y="310" as="targetPoint" />
          </mxGeometry>
        </mxCell>
        <mxCell id="B3g7HZk14HjYSBp_AV-u-34" value="Ввести данные пользователя" style="text;align=center;fontStyle=1;verticalAlign=middle;spacingLeft=3;spacingRight=3;strokeColor=none;rotatable=0;points=[[0,0.5],[1,0.5]];portConstraint=eastwest;html=1;" vertex="1" parent="1">
          <mxGeometry x="470" y="287" width="80" height="26" as="geometry" />
        </mxCell>
        <mxCell id="B3g7HZk14HjYSBp_AV-u-36" value="" style="endArrow=none;dashed=1;html=1;rounded=0;" edge="1" parent="1" source="B3g7HZk14HjYSBp_AV-u-47" target="B3g7HZk14HjYSBp_AV-u-35">
          <mxGeometry width="50" height="50" relative="1" as="geometry">
            <mxPoint x="680" y="440" as="sourcePoint" />
            <mxPoint x="680" y="230" as="targetPoint" />
            <Array as="points">
              <mxPoint x="680" y="310" />
            </Array>
          </mxGeometry>
        </mxCell>
        <mxCell id="B3g7HZk14HjYSBp_AV-u-35" value="" style="html=1;points=[[0,0,0,0,5],[0,1,0,0,-5],[1,0,0,0,5],[1,1,0,0,-5]];perimeter=orthogonalPerimeter;outlineConnect=0;targetShapes=umlLifeline;portConstraint=eastwest;newEdgeStyle={&quot;curved&quot;:0,&quot;rounded&quot;:0};" vertex="1" parent="1">
          <mxGeometry x="675" y="310" width="10" height="30" as="geometry" />
        </mxCell>
        <mxCell id="B3g7HZk14HjYSBp_AV-u-37" value="" style="endArrow=open;endFill=1;endSize=12;html=1;rounded=0;" edge="1" parent="1">
          <mxGeometry width="160" relative="1" as="geometry">
            <mxPoint x="125" y="469" as="sourcePoint" />
            <mxPoint x="375" y="469" as="targetPoint" />
          </mxGeometry>
        </mxCell>
        <mxCell id="B3g7HZk14HjYSBp_AV-u-39" value="" style="endArrow=none;dashed=1;html=1;rounded=0;entryX=0.445;entryY=0.98;entryDx=0;entryDy=0;entryPerimeter=0;" edge="1" parent="1" target="B3g7HZk14HjYSBp_AV-u-38">
          <mxGeometry width="50" height="50" relative="1" as="geometry">
            <mxPoint x="375.5" y="451" as="sourcePoint" />
            <mxPoint x="374" y="310" as="targetPoint" />
          </mxGeometry>
        </mxCell>
        <mxCell id="B3g7HZk14HjYSBp_AV-u-38" value="" style="html=1;points=[[0,0,0,0,5],[0,1,0,0,-5],[1,0,0,0,5],[1,1,0,0,-5]];perimeter=orthogonalPerimeter;outlineConnect=0;targetShapes=umlLifeline;portConstraint=eastwest;newEdgeStyle={&quot;curved&quot;:0,&quot;rounded&quot;:0};" vertex="1" parent="1">
          <mxGeometry x="370" y="470" width="10" height="20" as="geometry" />
        </mxCell>
        <mxCell id="B3g7HZk14HjYSBp_AV-u-40" value="Отметить пользователя как участвующего в аукционе" style="text;align=center;fontStyle=1;verticalAlign=middle;spacingLeft=3;spacingRight=3;strokeColor=none;rotatable=0;points=[[0,0.5],[1,0.5]];portConstraint=eastwest;html=1;" vertex="1" parent="1">
          <mxGeometry x="210" y="450" width="80" height="26" as="geometry" />
        </mxCell>
        <mxCell id="B3g7HZk14HjYSBp_AV-u-43" value="" style="endArrow=none;dashed=1;html=1;rounded=0;entryX=0.445;entryY=0.98;entryDx=0;entryDy=0;entryPerimeter=0;" edge="1" parent="1" source="B3g7HZk14HjYSBp_AV-u-50" target="B3g7HZk14HjYSBp_AV-u-42">
          <mxGeometry width="50" height="50" relative="1" as="geometry">
            <mxPoint x="374" y="560" as="sourcePoint" />
            <mxPoint x="374" y="310" as="targetPoint" />
          </mxGeometry>
        </mxCell>
        <mxCell id="B3g7HZk14HjYSBp_AV-u-42" value="" style="html=1;points=[[0,0,0,0,5],[0,1,0,0,-5],[1,0,0,0,5],[1,1,0,0,-5]];perimeter=orthogonalPerimeter;outlineConnect=0;targetShapes=umlLifeline;portConstraint=eastwest;newEdgeStyle={&quot;curved&quot;:0,&quot;rounded&quot;:0};" vertex="1" parent="1">
          <mxGeometry x="370" y="340" width="10" height="20" as="geometry" />
        </mxCell>
        <mxCell id="B3g7HZk14HjYSBp_AV-u-44" value="" style="endArrow=open;endFill=1;endSize=12;html=1;rounded=0;" edge="1" parent="1">
          <mxGeometry width="160" relative="1" as="geometry">
            <mxPoint x="125" y="339" as="sourcePoint" />
            <mxPoint x="370" y="340" as="targetPoint" />
          </mxGeometry>
        </mxCell>
        <mxCell id="B3g7HZk14HjYSBp_AV-u-45" value="Записать пользователя на аукцион" style="text;align=center;fontStyle=1;verticalAlign=middle;spacingLeft=3;spacingRight=3;strokeColor=none;rotatable=0;points=[[0,0.5],[1,0.5]];portConstraint=eastwest;html=1;" vertex="1" parent="1">
          <mxGeometry x="210" y="314" width="80" height="26" as="geometry" />
        </mxCell>
        <mxCell id="B3g7HZk14HjYSBp_AV-u-46" value="" style="endArrow=open;endFill=1;endSize=12;html=1;rounded=0;" edge="1" parent="1">
          <mxGeometry width="160" relative="1" as="geometry">
            <mxPoint x="380" y="360" as="sourcePoint" />
            <mxPoint x="670" y="360" as="targetPoint" />
          </mxGeometry>
        </mxCell>
        <mxCell id="B3g7HZk14HjYSBp_AV-u-48" value="" style="endArrow=none;dashed=1;html=1;rounded=0;" edge="1" parent="1" source="B3g7HZk14HjYSBp_AV-u-58" target="B3g7HZk14HjYSBp_AV-u-47">
          <mxGeometry width="50" height="50" relative="1" as="geometry">
            <mxPoint x="680" y="540" as="sourcePoint" />
            <mxPoint x="680" y="310" as="targetPoint" />
            <Array as="points" />
          </mxGeometry>
        </mxCell>
        <mxCell id="B3g7HZk14HjYSBp_AV-u-47" value="" style="html=1;points=[[0,0,0,0,5],[0,1,0,0,-5],[1,0,0,0,5],[1,1,0,0,-5]];perimeter=orthogonalPerimeter;outlineConnect=0;targetShapes=umlLifeline;portConstraint=eastwest;newEdgeStyle={&quot;curved&quot;:0,&quot;rounded&quot;:0};" vertex="1" parent="1">
          <mxGeometry x="675" y="358" width="10" height="30" as="geometry" />
        </mxCell>
        <mxCell id="B3g7HZk14HjYSBp_AV-u-49" value="" style="html=1;verticalAlign=bottom;endArrow=open;dashed=1;endSize=8;curved=0;rounded=0;" edge="1" parent="1">
          <mxGeometry relative="1" as="geometry">
            <mxPoint x="675" y="388" as="sourcePoint" />
            <mxPoint x="380" y="388" as="targetPoint" />
          </mxGeometry>
        </mxCell>
        <mxCell id="B3g7HZk14HjYSBp_AV-u-51" value="" style="endArrow=none;dashed=1;html=1;rounded=0;entryX=0.445;entryY=0.98;entryDx=0;entryDy=0;entryPerimeter=0;" edge="1" parent="1" target="B3g7HZk14HjYSBp_AV-u-50">
          <mxGeometry width="50" height="50" relative="1" as="geometry">
            <mxPoint x="374" y="560" as="sourcePoint" />
            <mxPoint x="374" y="360" as="targetPoint" />
          </mxGeometry>
        </mxCell>
        <mxCell id="B3g7HZk14HjYSBp_AV-u-50" value="" style="html=1;points=[[0,0,0,0,5],[0,1,0,0,-5],[1,0,0,0,5],[1,1,0,0,-5]];perimeter=orthogonalPerimeter;outlineConnect=0;targetShapes=umlLifeline;portConstraint=eastwest;newEdgeStyle={&quot;curved&quot;:0,&quot;rounded&quot;:0};" vertex="1" parent="1">
          <mxGeometry x="370" y="388" width="10" height="20" as="geometry" />
        </mxCell>
        <mxCell id="B3g7HZk14HjYSBp_AV-u-52" value="" style="html=1;verticalAlign=bottom;endArrow=open;dashed=1;endSize=8;curved=0;rounded=0;" edge="1" parent="1">
          <mxGeometry relative="1" as="geometry">
            <mxPoint x="370" y="408" as="sourcePoint" />
            <mxPoint x="125" y="408" as="targetPoint" />
          </mxGeometry>
        </mxCell>
        <mxCell id="B3g7HZk14HjYSBp_AV-u-53" value="Проверка на свободное место в лоте" style="text;align=center;fontStyle=1;verticalAlign=middle;spacingLeft=3;spacingRight=3;strokeColor=none;rotatable=0;points=[[0,0.5],[1,0.5]];portConstraint=eastwest;html=1;" vertex="1" parent="1">
          <mxGeometry x="480" y="337" width="80" height="26" as="geometry" />
        </mxCell>
        <mxCell id="B3g7HZk14HjYSBp_AV-u-54" value="Есть свободное место" style="text;align=center;fontStyle=1;verticalAlign=middle;spacingLeft=3;spacingRight=3;strokeColor=none;rotatable=0;points=[[0,0.5],[1,0.5]];portConstraint=eastwest;html=1;" vertex="1" parent="1">
          <mxGeometry x="480" y="367" width="80" height="26" as="geometry" />
        </mxCell>
        <mxCell id="B3g7HZk14HjYSBp_AV-u-56" value="Есть свободное место" style="text;align=center;fontStyle=1;verticalAlign=middle;spacingLeft=3;spacingRight=3;strokeColor=none;rotatable=0;points=[[0,0.5],[1,0.5]];portConstraint=eastwest;html=1;" vertex="1" parent="1">
          <mxGeometry x="210" y="382" width="80" height="26" as="geometry" />
        </mxCell>
        <mxCell id="B3g7HZk14HjYSBp_AV-u-57" value="" style="endArrow=open;endFill=1;endSize=12;html=1;rounded=0;" edge="1" parent="1">
          <mxGeometry width="160" relative="1" as="geometry">
            <mxPoint x="385" y="490" as="sourcePoint" />
            <mxPoint x="670" y="490" as="targetPoint" />
          </mxGeometry>
        </mxCell>
        <mxCell id="B3g7HZk14HjYSBp_AV-u-59" value="" style="endArrow=none;dashed=1;html=1;rounded=0;" edge="1" parent="1" target="B3g7HZk14HjYSBp_AV-u-58">
          <mxGeometry width="50" height="50" relative="1" as="geometry">
            <mxPoint x="680" y="540" as="sourcePoint" />
            <mxPoint x="680" y="388" as="targetPoint" />
            <Array as="points" />
          </mxGeometry>
        </mxCell>
        <mxCell id="B3g7HZk14HjYSBp_AV-u-58" value="" style="html=1;points=[[0,0,0,0,5],[0,1,0,0,-5],[1,0,0,0,5],[1,1,0,0,-5]];perimeter=orthogonalPerimeter;outlineConnect=0;targetShapes=umlLifeline;portConstraint=eastwest;newEdgeStyle={&quot;curved&quot;:0,&quot;rounded&quot;:0};" vertex="1" parent="1">
          <mxGeometry x="675" y="490" width="10" height="30" as="geometry" />
        </mxCell>
        <mxCell id="B3g7HZk14HjYSBp_AV-u-60" value="Изменить статус пользователя" style="text;align=center;fontStyle=1;verticalAlign=middle;spacingLeft=3;spacingRight=3;strokeColor=none;rotatable=0;points=[[0,0.5],[1,0.5]];portConstraint=eastwest;html=1;" vertex="1" parent="1">
          <mxGeometry x="490" y="467" width="80" height="26" as="geometry" />
        </mxCell>
      </root>
    </mxGraphModel>
  </diagram>
</mxfile>
